<?xml version="1.0" standalone="no"?>
<!DOCTYPE svg PUBLIC "-//W3C//DTD SVG 20010904//EN"
 "http://www.w3.org/TR/2001/REC-SVG-20010904/DTD/svg10.dtd">
<svg version="1.0" xmlns="http://www.w3.org/2000/svg"
 width="500.000000pt" height="500.000000pt" viewBox="0 0 500.000000 500.000000"
 preserveAspectRatio="xMidYMid meet">

<g transform="translate(0.000000,500.000000) scale(0.100000,-0.100000)"
fill="#000000" stroke="none">
<path d="M3710 3000 l0 -100 270 0 270 0 0 33 c0 60 -62 130 -139 156 -20 6
-107 11 -217 11 l-184 0 0 -100z"/>
<path d="M2118 2875 c-32 -18 -58 -63 -58 -98 0 -35 35 -74 91 -103 55 -27 68
-46 49 -69 -17 -21 -59 -19 -98 5 l-32 20 -20 -33 -20 -32 20 -17 c43 -35 135
-41 203 -13 23 10 47 57 47 93 0 41 -27 71 -96 107 -65 33 -79 59 -41 76 18 8
32 7 59 -4 l35 -15 16 34 c16 32 16 34 -4 45 -36 19 -121 21 -151 4z"/>
<path d="M1040 2700 l0 -180 105 0 105 0 0 35 0 34 -62 3 -63 3 0 35 0 35 58
3 57 3 0 34 0 35 -60 0 -60 0 0 35 0 35 65 0 65 0 0 35 0 35 -105 0 -105 0 0
-180z"/>
<path d="M1490 2700 l0 -180 45 0 45 0 0 70 0 70 51 0 c45 0 55 4 85 34 38 38
45 85 20 135 -21 40 -56 51 -156 51 l-90 0 0 -180z m151 110 c12 -7 19 -21 19
-40 0 -31 -22 -50 -59 -50 -18 0 -21 6 -21 50 0 44 3 50 21 50 11 0 29 -5 40
-10z"/>
<path d="M1790 2700 l0 -180 100 0 100 0 0 35 0 35 -60 0 -60 0 0 40 0 40 60
0 60 0 0 35 0 35 -60 0 -60 0 0 35 0 35 60 0 60 0 0 35 0 35 -100 0 -100 0 0
-180z"/>
<path d="M2435 2848 c-46 -112 -125 -314 -125 -320 0 -4 18 -8 40 -8 36 0 41
3 55 35 l14 36 73 -3 c72 -3 72 -3 82 -35 8 -31 12 -33 54 -33 38 0 43 2 38
18 -4 9 -37 90 -73 180 l-66 162 -39 0 c-35 0 -41 -4 -53 -32z m78 -135 l17
-43 -41 0 c-29 0 -39 4 -35 13 2 6 10 29 17 50 14 42 19 40 42 -20z"/>
<path d="M2690 2700 l0 -180 40 0 39 0 3 111 3 112 70 -112 70 -111 43 0 42 0
0 180 0 180 -40 0 -39 0 -3 -112 -3 -113 -70 112 -70 112 -42 1 -43 0 0 -180z"/>
<path d="M3030 2845 c0 -35 0 -35 45 -35 l45 0 0 -145 0 -145 40 0 40 0 0 145
0 145 40 0 c39 0 40 1 40 35 l0 35 -125 0 -125 0 0 -35z"/>
<path d="M3320 2700 l0 -180 40 0 39 0 3 70 3 71 53 -71 52 -70 51 0 c58 0 58
-1 -13 81 -26 31 -48 59 -48 62 0 3 14 19 30 35 45 45 44 113 -1 155 -27 25
-35 27 -119 27 l-90 0 0 -180z m144 104 c22 -22 20 -50 -6 -68 -43 -30 -58
-21 -58 34 0 46 2 50 24 50 14 0 32 -7 40 -16z"/>
<path d="M3630 2700 l0 -180 105 0 105 0 0 35 0 34 -62 3 -63 3 0 35 0 35 58
3 57 3 0 34 0 35 -60 0 -60 0 0 35 0 35 65 0 65 0 0 35 0 35 -105 0 -105 0 0
-180z"/>
<path d="M3890 2700 l0 -180 40 0 39 0 3 112 3 113 72 -113 72 -112 41 0 40 0
0 180 0 180 -40 0 -40 0 0 -112 0 -113 -73 112 -72 113 -42 0 -43 0 0 -180z"/>
<path d="M1300 2645 l0 -36 68 3 67 3 3 33 3 32 -70 0 -71 0 0 -35z"/>
<path d="M1310 2255 c0 -37 4 -65 10 -65 6 0 10 28 10 65 0 37 -4 65 -10 65
-6 0 -10 -28 -10 -65z"/>
<path d="M1433 2258 c-23 -61 -25 -88 -3 -49 6 12 19 21 30 21 11 0 24 -9 30
-21 7 -11 13 -19 16 -17 5 6 -39 128 -46 128 -3 0 -15 -28 -27 -62z m40 2 c4
-15 0 -20 -15 -20 -14 0 -18 5 -14 16 3 9 6 20 6 25 0 17 17 1 23 -21z"/>
<path d="M1590 2255 c0 -37 4 -65 10 -65 6 0 10 28 10 65 0 37 -4 65 -10 65
-6 0 -10 -28 -10 -65z"/>
<path d="M1702 2254 l1 -69 6 54 6 53 37 -53 38 -54 -2 70 c-1 67 -1 68 -7 20
l-6 -50 -23 36 c-44 71 -52 70 -50 -7z"/>
<path d="M1997 2313 c-16 -16 -5 -44 24 -58 38 -20 36 -50 -4 -50 -15 1 -27
-3 -27 -7 0 -14 57 -8 70 7 16 20 6 43 -25 57 -34 15 -33 45 3 51 26 4 26 4
-4 6 -17 0 -34 -2 -37 -6z"/>
<path d="M2160 2280 c11 -21 20 -52 21 -67 l1 -28 7 30 c4 17 15 45 25 63 10
19 15 36 12 39 -2 3 -12 -10 -22 -28 l-17 -34 -15 33 c-9 17 -19 32 -24 32 -5
0 1 -18 12 -40z"/>
<path d="M2310 2255 l0 -65 38 1 c30 2 32 3 10 6 -22 3 -28 10 -28 28 0 18 6
25 28 28 l27 4 -27 2 c-23 1 -28 6 -28 25 0 19 6 26 28 29 22 3 20 4 -10 6
l-38 1 0 -65z"/>
<path d="M2470 2255 c0 -37 4 -65 10 -65 6 0 10 15 10 33 l1 32 27 -33 c36
-43 50 -41 16 3 -24 32 -25 37 -12 53 30 34 29 46 -1 14 l-31 -32 0 30 c0 16
-4 30 -10 30 -6 0 -10 -28 -10 -65z"/>
<path d="M2640 2255 c0 -37 4 -65 10 -65 6 0 10 14 10 30 0 27 3 30 30 30 27
0 30 -3 30 -30 0 -16 5 -30 10 -30 6 0 10 28 10 65 0 37 -4 65 -10 65 -5 0
-10 -13 -10 -30 0 -27 -3 -30 -30 -30 -27 0 -30 3 -30 30 0 17 -4 30 -10 30
-6 0 -10 -28 -10 -65z"/>
<path d="M2941 2255 l2 -70 7 60 c4 33 3 64 -2 70 -4 5 -7 -22 -7 -60z"/>
<path d="M3021 2275 l-2 -50 -29 35 c-40 47 -38 25 3 -30 l32 -45 3 38 c2 21
1 52 -1 70 -3 23 -4 19 -6 -18z"/>
<path d="M3120 2267 c0 -57 12 -77 45 -77 34 0 45 20 43 80 l-2 55 -3 -52 c-4
-53 -22 -79 -48 -69 -11 4 -15 21 -15 61 0 30 -4 55 -10 55 -5 0 -10 -24 -10
-53z"/>
<path d="M3300 2255 c0 -37 4 -65 10 -65 6 0 10 14 10 30 0 17 4 30 8 30 4 0
16 -13 25 -30 10 -16 23 -30 28 -30 6 0 2 12 -9 27 -18 25 -18 29 -5 50 20 30
3 53 -38 53 -29 0 -29 0 -29 -65z m55 30 c0 -11 -8 -21 -17 -23 -14 -3 -18 3
-18 23 0 20 4 26 18 23 9 -2 17 -12 17 -23z"/>
<path d="M3470 2261 c0 -38 -5 -61 -12 -65 -7 -3 -4 -5 7 -3 17 2 20 11 23 65
2 38 -1 62 -8 62 -6 0 -10 -25 -10 -59z"/>
<path d="M3593 2258 c-23 -61 -25 -88 -3 -49 6 12 19 21 30 21 11 0 24 -9 30
-21 7 -11 13 -19 16 -17 5 6 -39 128 -46 128 -3 0 -15 -28 -27 -62z m40 2 c4
-15 0 -20 -15 -20 -14 0 -18 5 -14 16 3 9 6 20 6 25 0 17 17 1 23 -21z"/>
<path d="M3757 2313 c19 -4 23 -12 26 -66 l3 -62 2 62 c2 55 4 62 25 66 12 2
0 4 -28 4 -27 0 -40 -2 -28 -4z"/>
<path d="M3923 2255 c0 -38 2 -53 4 -32 2 20 2 52 0 70 -2 17 -4 1 -4 -38z"/>
</g>
</svg>
